<?xml version="1.0" standalone="no"?><svg xmlns="http://www.w3.org/2000/svg" viewBox="0 0 1440 320"><path fill="#ccc" fill-opacity="1" d="M0,32L26.7,48C53.3,64,107,96,160,133.3C213.3,171,267,213,320,202.7C373.3,192,427,128,480,122.7C533.3,117,587,171,640,165.3C693.3,160,747,96,800,90.7C853.3,85,907,139,960,165.3C1013.3,192,1067,192,1120,208C1173.3,224,1227,256,1280,234.7C1333.3,213,1387,139,1413,101.3L1440,64L1440,320L1413.3,320C1386.7,320,1333,320,1280,320C1226.7,320,1173,320,1120,320C1066.7,320,1013,320,960,320C906.7,320,853,320,800,320C746.7,320,693,320,640,320C586.7,320,533,320,480,320C426.7,320,373,320,320,320C266.7,320,213,320,160,320C106.7,320,53,320,27,320L0,320Z"></path></svg>