<?xml version="1.0" standalone="no"?><svg xmlns="http://www.w3.org/2000/svg" viewBox="0 0 1440 320"><path fill="#ffff" fill-opacity="1" d="M0,64L24,101.3C48,139,96,213,144,213.3C192,213,240,139,288,112C336,85,384,107,432,133.3C480,160,528,192,576,197.3C624,203,672,181,720,186.7C768,192,816,224,864,224C912,224,960,192,1008,149.3C1056,107,1104,53,1152,74.7C1200,96,1248,192,1296,229.3C1344,267,1392,245,1416,234.7L1440,224L1440,0L1416,0C1392,0,1344,0,1296,0C1248,0,1200,0,1152,0C1104,0,1056,0,1008,0C960,0,912,0,864,0C816,0,768,0,720,0C672,0,624,0,576,0C528,0,480,0,432,0C384,0,336,0,288,0C240,0,192,0,144,0C96,0,48,0,24,0L0,0Z"></path></svg>